<?xml version="1.0" encoding="iso-8859-1"?>
<!-- Generator: Adobe Illustrator 19.0.0, SVG Export Plug-In . SVG Version: 6.00 Build 0)  -->
<svg version="1.1" id="Capa_1" xmlns="http://www.w3.org/2000/svg" xmlns:xlink="http://www.w3.org/1999/xlink" x="0px" y="0px"
	 viewBox="0 0 480 480" style="enable-background:new 0 0 480 480;" xml:space="preserve">
<g>
	<g>
		<circle style="fill:#D7DBE0;" cx="240" cy="240" r="216"/>
	</g>
	<g>
		<circle style="fill:#FFFFFF;" cx="240" cy="240" r="176"/>
	</g>
	<g>
		<path style="fill:#5C546A;" d="M72,248H40c-4.422,0-8-3.578-8-8s3.578-8,8-8h32c4.422,0,8,3.578,8,8S76.422,248,72,248z"/>
	</g>
	<g>
		<path style="fill:#5C546A;" d="M440,248h-32c-4.422,0-8-3.578-8-8s3.578-8,8-8h32c4.422,0,8,3.578,8,8S444.422,248,440,248z"/>
	</g>
	<g>
		<path style="fill:#5C546A;" d="M240,448c-4.422,0-8-3.578-8-8v-32c0-4.422,3.578-8,8-8s8,3.578,8,8v32
			C248,444.422,244.422,448,240,448z"/>
	</g>
	<g>
		<path style="fill:#5C546A;" d="M240,80c-4.422,0-8-3.578-8-8V40c0-4.422,3.578-8,8-8s8,3.578,8,8v32C248,76.422,244.422,80,240,80
			z"/>
	</g>
	<g>
		<path style="fill:#8A8895;" d="M413.195,348c-1.359,0-2.734-0.344-3.992-1.07l-20.781-12c-3.828-2.211-5.141-7.102-2.93-10.93
			c2.211-3.836,7.109-5.148,10.93-2.93l20.781,12c3.828,2.211,5.141,7.102,2.93,10.93C418.648,346.57,415.961,348,413.195,348z"/>
	</g>
	<g>
		<path style="fill:#8A8895;" d="M87.57,160c-1.359,0-2.734-0.344-3.992-1.07l-20.781-12c-3.828-2.211-5.141-7.102-2.93-10.93
			c2.211-3.836,7.109-5.141,10.93-2.93l20.781,12c3.828,2.211,5.141,7.102,2.93,10.93C93.023,158.57,90.336,160,87.57,160z"/>
	</g>
	<g>
		<path style="fill:#8A8895;" d="M66.805,348c-2.766,0-5.453-1.43-6.938-4c-2.211-3.828-0.898-8.719,2.93-10.93l20.781-12
			c3.813-2.219,8.719-0.906,10.93,2.93c2.211,3.828,0.898,8.719-2.93,10.93l-20.781,12C69.539,347.656,68.164,348,66.805,348z"/>
	</g>
	<g>
		<path style="fill:#8A8895;" d="M392.43,160c-2.766,0-5.453-1.43-6.938-4c-2.211-3.828-0.898-8.719,2.93-10.93l20.781-12
			c3.813-2.211,8.711-0.906,10.93,2.93c2.211,3.828,0.898,8.719-2.93,10.93l-20.781,12C395.164,159.656,393.789,160,392.43,160z"/>
	</g>
	<g>
		<path style="fill:#8A8895;" d="M327.992,95.578c-1.359,0-2.734-0.344-3.992-1.07c-3.828-2.211-5.141-7.102-2.93-10.93l12-20.781
			c2.219-3.836,7.102-5.148,10.93-2.93c3.828,2.211,5.141,7.102,2.93,10.93l-12,20.781
			C333.445,94.148,330.758,95.578,327.992,95.578z"/>
	</g>
	<g>
		<path style="fill:#8A8895;" d="M139.992,421.203c-1.359,0-2.734-0.344-3.992-1.07c-3.828-2.211-5.141-7.102-2.93-10.93l12-20.781
			c2.211-3.836,7.109-5.148,10.93-2.93c3.828,2.211,5.141,7.102,2.93,10.93l-12,20.781
			C145.445,419.773,142.758,421.203,139.992,421.203z"/>
	</g>
	<g>
		<path style="fill:#8A8895;" d="M340.008,421.203c-2.766,0-5.453-1.43-6.938-4l-12-20.781c-2.211-3.828-0.898-8.719,2.93-10.93
			c3.813-2.219,8.711-0.906,10.93,2.93l12,20.781c2.211,3.828,0.898,8.719-2.93,10.93
			C342.742,420.859,341.367,421.203,340.008,421.203z"/>
	</g>
	<g>
		<path style="fill:#8A8895;" d="M152.008,95.578c-2.766,0-5.453-1.43-6.938-4l-12-20.781c-2.211-3.828-0.898-8.719,2.93-10.93
			c3.813-2.219,8.711-0.906,10.93,2.93l12,20.781c2.211,3.828,0.898,8.719-2.93,10.93C154.742,95.234,153.367,95.578,152.008,95.578
			z"/>
	</g>
	<g>
		<g>
			<path style="fill:#FF4F19;" d="M336,260h-4v-84c0-6.617-5.383-12-12-12s-12,5.383-12,12v84h-42l33.07-79.383
				c1.242-2.961,1.25-6.219,0.023-9.188c-1.219-2.969-3.523-5.273-6.477-6.508c-6.094-2.547-13.133,0.367-15.695,6.461l-39.992,96
				c-1.555,3.711-1.148,7.922,1.086,11.273C240.25,282,243.977,284,248,284h60v20c0,6.617,5.383,12,12,12s12-5.383,12-12v-20h4
				c6.617,0,12-5.383,12-12S342.617,260,336,260z"/>
		</g>
		<g>
			<path style="fill:#FF4F19;" d="M187.68,273.094C208.07,263.961,236,251.453,236,216c0-28.672-23.328-52-52-52s-52,23.328-52,52
				c0,6.617,5.383,12,12,12s12-5.383,12-12c0-15.438,12.563-28,28-28s28,12.563,28,28c0,19.898-15.063,26.648-34.133,35.195
				C157.43,260.352,132,271.742,132,304c0,6.617,5.383,12,12,12h80c6.617,0,12-5.383,12-12s-5.383-12-12-12h-64.863
				C163.512,284.771,172.658,279.824,187.68,273.094z"/>
		</g>
	</g>
	<g>
		<path style="fill:#FF4F19;" d="M240,0C107.452,0,0,107.452,0,240s107.452,240,240,240s240-107.452,240-240S372.548,0,240,0z
			 M240,440c-110.457,0-200-89.543-200-200S129.543,40,240,40s200,89.543,200,200S350.457,440,240,440z"/>
	</g>
	<g>
		<path style="fill:#E7001E;" d="M40,240c0-110.457,89.543-200,200-200V0C107.452,0,0,107.452,0,240s107.452,240,240,240v-40
			C129.543,440,40,350.457,40,240z"/>
	</g>
</g>
<g>
</g>
<g>
</g>
<g>
</g>
<g>
</g>
<g>
</g>
<g>
</g>
<g>
</g>
<g>
</g>
<g>
</g>
<g>
</g>
<g>
</g>
<g>
</g>
<g>
</g>
<g>
</g>
<g>
</g>
</svg>
